<svg width="274" height="100" viewBox="0 0 274 100" fill="none" xmlns="http://www.w3.org/2000/svg">
<path d="M52.9077 99.9082C77.9555 99.9082 98.2608 79.603 98.2608 54.5552C98.2608 29.5074 77.9555 9.20215 52.9077 9.20215C27.8599 9.20215 7.55469 29.5074 7.55469 54.5552C7.55469 79.603 27.8599 99.9082 52.9077 99.9082Z" fill="url(#paint0_radial_5634_140670)"/>
<path d="M25.1842 9.75468C32.1066 5.80247 39.9423 3.72956 47.9134 3.74225C53.9429 3.74207 59.9134 4.92954 65.484 7.23684C71.0545 9.54414 76.1161 12.9263 80.3796 17.1898C84.643 21.4533 88.025 26.5148 90.3323 32.0854C92.6396 37.6559 93.8271 43.6262 93.8269 49.6557C93.8271 55.6852 92.6396 61.6558 90.3323 67.2263C88.025 72.7969 84.643 77.8585 80.3796 82.1219C76.1161 86.3854 71.0545 89.7672 65.484 92.0745C59.9134 94.3818 53.9429 95.5693 47.9134 95.5691C35.7365 95.5691 24.0582 90.732 15.4478 82.1216C6.83734 73.5112 2.00005 61.8327 2.00005 49.6557C1.989 42.1794 3.81152 34.8144 7.30797 28.2061" stroke="white" stroke-width="2.74028" stroke-miterlimit="10" stroke-linecap="round"/>
<path d="M50.6184 67.9909C45.3927 67.9909 40.1656 68.0881 34.9427 67.9621C30.5418 67.8552 28.2125 65.933 27.9892 61.58C27.6807 55.4521 27.6807 49.3124 27.9892 43.1845C28.1975 38.996 30.3294 36.9997 34.5659 36.9299C45.1525 36.7563 55.7409 36.7605 66.3312 36.9422C70.2663 37.0053 72.0214 38.6862 72.6078 42.5335C73.6254 49.1731 73.6106 55.9301 72.564 62.5652C72.5107 63.3332 72.3055 64.0831 71.9602 64.7712C71.615 65.4594 71.1366 66.072 70.5527 66.5739C69.9689 67.0758 69.2912 67.4568 68.5591 67.6948C67.8269 67.9329 67.0547 68.0233 66.2874 67.9608C61.063 68.0471 55.8373 67.9825 50.6116 67.9825L50.6184 67.9909ZM45.601 58.6012L58.4104 51.9643L45.601 45.315V58.6012Z" fill="white"/>
<path d="M228.443 98.17C253.491 98.17 273.796 77.8647 273.796 52.8169C273.796 27.7691 253.491 7.46387 228.443 7.46387C203.395 7.46387 183.09 27.7691 183.09 52.8169C183.09 77.8647 203.395 98.17 228.443 98.17Z" fill="url(#paint1_radial_5634_140670)"/>
<path d="M200.719 8.01248C207.642 4.06076 215.478 1.98787 223.449 2.00005C235.626 2.00005 247.304 6.83747 255.914 15.4479C264.525 24.0583 269.362 35.7365 269.362 47.9135C269.362 53.943 268.175 59.9136 265.867 65.4842C263.56 71.0547 260.178 76.1163 255.915 80.3798C251.651 84.6432 246.59 88.025 241.019 90.3323C235.449 92.6396 229.478 93.8271 223.449 93.8269C211.272 93.8269 199.593 88.9899 190.983 80.3794C182.373 71.769 177.535 60.0905 177.535 47.9135C177.524 40.4372 179.347 33.0723 182.843 26.4639" stroke="white" stroke-width="2.74028" stroke-miterlimit="10" stroke-linecap="round"/>
<path d="M223.499 73.1219C220.497 73.1458 217.52 72.575 214.74 71.4427C211.96 70.3103 209.431 68.6388 207.3 66.5244C205.168 64.41 203.477 61.8948 202.323 59.1234C201.168 56.3521 200.574 53.3795 200.574 50.3774C200.583 44.3167 202.992 38.5061 207.275 34.2177C211.557 29.9293 217.365 27.5124 223.425 27.4961C229.487 27.4859 235.304 29.8826 239.599 34.1595C243.894 38.4364 246.315 44.2436 246.33 50.3048C246.346 53.3067 245.765 56.2817 244.623 59.0579C243.481 61.834 241.8 64.3562 239.677 66.4782C237.553 68.6003 235.03 70.2802 232.254 71.4206C229.477 72.561 226.501 73.1391 223.499 73.1219ZM220.003 39.0206C216.704 39.4768 213.395 39.8836 210.106 40.4124C208.462 40.6769 206.922 41.414 207.376 43.4391C207.822 45.4436 209.442 45.2382 211.126 45.0902C215.52 44.7038 219.986 43.9857 224.322 44.4242C228.485 44.8448 232.504 46.6164 236.625 47.6371C237.695 47.8692 238.81 47.7576 239.812 47.318C240.255 47.1166 240.545 45.6944 240.292 45.0778C239.856 44.2711 239.169 43.6286 238.335 43.2474C232.619 40.4814 226.353 39.0364 220.003 39.0192V39.0206ZM219.684 46.8959C216.64 47.4014 213.565 47.7799 210.576 48.5115C209.891 48.6814 209.491 50.0651 208.961 50.8899C209.702 51.4134 210.481 51.883 211.29 52.2945C211.649 52.4507 212.198 52.215 212.649 52.1095C219.649 50.4006 227.03 51.2738 233.437 54.5688C234.751 55.2237 236.216 55.8389 237.031 54.0988C237.812 52.4313 236.509 51.5998 235.185 50.9106C230.367 48.475 225.08 47.1052 219.685 46.8945L219.684 46.8959ZM219.645 54.6073C217.49 54.8429 215.306 54.9375 213.189 55.3636C211.846 55.6376 209.49 55.3636 210.005 57.7188C210.458 59.7987 212.422 58.8299 213.751 58.6093C219.788 57.6105 225.653 57.7942 231.189 60.7578C232.285 61.3456 233.475 61.8416 234.189 60.4166C234.903 58.9917 233.699 58.3475 232.651 57.7844C228.653 55.6437 224.179 54.5499 219.645 54.6046V54.6073Z" fill="white"/>
<path d="M177.537 48.9627L154.777 48.8035C154.39 48.8024 154.009 48.9032 153.672 49.0955C153.335 49.2878 153.055 49.5651 152.859 49.8997L150.256 54.3088C150.04 54.6761 149.722 54.9733 149.341 55.1645C148.96 55.3556 148.532 55.4327 148.108 55.3866C147.684 55.3404 147.283 55.1729 146.952 54.9042C146.621 54.6355 146.375 54.2772 146.243 53.8719L141.843 40.3976C141.695 39.9427 141.403 39.5485 141.011 39.2734C140.62 38.9983 140.15 38.8571 139.671 38.8716C139.193 38.8861 138.732 39.0553 138.358 39.3536C137.984 39.652 137.717 40.0634 137.596 40.5264L132.602 59.6552C132.478 60.1291 132.2 60.5484 131.813 60.8477C131.425 61.1471 130.949 61.3094 130.459 61.3094C129.97 61.3094 129.494 61.1471 129.106 60.8477C128.719 60.5484 128.441 60.1291 128.317 59.6552L125.839 50.2382C125.714 49.7687 125.438 49.3532 125.054 49.056C124.669 48.7589 124.198 48.5967 123.712 48.5941L96.4766 48.4034" stroke="white" stroke-width="2.74028" stroke-miterlimit="10" stroke-linecap="round"/>
<defs>
<radialGradient id="paint0_radial_5634_140670" cx="0" cy="0" r="1" gradientUnits="userSpaceOnUse" gradientTransform="translate(52.9077 54.5552) scale(45.353)">
<stop stop-color="#F58C00"/>
<stop offset="1" stop-color="#E64B34"/>
</radialGradient>
<radialGradient id="paint1_radial_5634_140670" cx="0" cy="0" r="1" gradientUnits="userSpaceOnUse" gradientTransform="translate(228.443 52.8169) scale(45.353)">
<stop stop-color="#F58C00"/>
<stop offset="1" stop-color="#E64B34"/>
</radialGradient>
</defs>
</svg>
