<svg width="274" height="100" viewBox="0 0 274 100" fill="none" xmlns="http://www.w3.org/2000/svg">
<path d="M52.9077 99.9082C77.9555 99.9082 98.2608 79.603 98.2608 54.5552C98.2608 29.5074 77.9555 9.20215 52.9077 9.20215C27.8599 9.20215 7.55469 29.5074 7.55469 54.5552C7.55469 79.603 27.8599 99.9082 52.9077 99.9082Z" fill="url(#paint0_radial_5634_140813)"/>
<path d="M25.1842 9.75468C32.1066 5.80247 39.9423 3.72956 47.9134 3.74225C53.9429 3.74207 59.9134 4.92954 65.484 7.23684C71.0545 9.54414 76.1161 12.9263 80.3796 17.1898C84.643 21.4533 88.025 26.5148 90.3323 32.0854C92.6396 37.6559 93.8271 43.6262 93.8269 49.6557C93.8271 55.6852 92.6396 61.6558 90.3323 67.2263C88.025 72.7969 84.643 77.8585 80.3796 82.1219C76.1161 86.3854 71.0545 89.7672 65.484 92.0745C59.9134 94.3818 53.9429 95.5693 47.9134 95.5691C35.7365 95.5691 24.0582 90.732 15.4478 82.1216C6.83734 73.5112 2.00005 61.8327 2.00005 49.6557C1.989 42.1794 3.81152 34.8144 7.30797 28.2061" stroke="white" stroke-width="2.74028" stroke-miterlimit="10" stroke-linecap="round"/>
<path d="M42.9947 41.6325C40.5855 41.6325 38.6325 39.6795 38.6325 37.2703C38.6325 34.8611 40.5855 32.9081 42.9947 32.9081C45.4038 32.9081 47.3568 34.8611 47.3568 37.2703C47.3568 39.6795 45.4038 41.6325 42.9947 41.6325ZM42.9947 44.5406C47.0099 44.5406 50.265 41.2856 50.265 37.2703C50.265 33.255 47.0099 30 42.9947 30C38.9794 30 35.7244 33.255 35.7244 37.2703C35.7244 41.2856 38.9794 44.5406 42.9947 44.5406ZM35.7244 50.346H50.265C53.4772 50.346 56.0812 52.95 56.0812 56.1622V59.0703H29.9081V56.1622C29.9081 52.95 32.5121 50.346 35.7244 50.346ZM35.7244 47.4379C30.906 47.4379 27 51.3439 27 56.1622V61.9785H58.9893V56.1622C58.9893 51.3439 55.0833 47.4379 50.265 47.4379H35.7244ZM61.5088 49.8756L73.1452 52.1569V60.626L64.4169 58.7651V69.7806C64.4169 72.857 61.6029 75 58.5987 75C55.5945 75 52.7805 72.8578 52.7805 69.7814C52.7805 66.705 55.5945 64.5628 58.5987 64.5628C59.6259 64.5628 60.6309 64.8133 61.5088 65.2659V49.8756ZM64.4169 55.7917L70.2371 57.0325V54.5503L64.4169 53.4092V55.7917ZM58.5987 67.4709C56.7823 67.4709 55.6886 68.6997 55.6886 69.7814C55.6886 70.8632 56.7823 72.0919 58.5987 72.0919C60.415 72.0919 61.5088 70.8632 61.5088 69.7814C61.5088 68.6997 60.415 67.4709 58.5987 67.4709Z" fill="white"/>
<path d="M228.443 98.17C253.491 98.17 273.796 77.8647 273.796 52.8169C273.796 27.7691 253.491 7.46387 228.443 7.46387C203.395 7.46387 183.09 27.7691 183.09 52.8169C183.09 77.8647 203.395 98.17 228.443 98.17Z" fill="url(#paint1_radial_5634_140813)"/>
<path d="M200.719 8.01248C207.642 4.06076 215.478 1.98787 223.449 2.00005C235.626 2.00005 247.304 6.83747 255.914 15.4479C264.525 24.0583 269.362 35.7365 269.362 47.9135C269.362 53.943 268.175 59.9136 265.867 65.4842C263.56 71.0547 260.178 76.1163 255.915 80.3798C251.651 84.6432 246.59 88.025 241.019 90.3323C235.449 92.6396 229.478 93.8271 223.449 93.8269C211.272 93.8269 199.593 88.9899 190.983 80.3794C182.373 71.769 177.535 60.0905 177.535 47.9135C177.524 40.4372 179.347 33.0723 182.843 26.4639" stroke="white" stroke-width="2.74028" stroke-miterlimit="10" stroke-linecap="round"/>
<path d="M220.125 28.75H200V31.625H220.125V28.75Z" fill="white"/>
<path d="M220.125 37.375H200V40.25H220.125V37.375Z" fill="white"/>
<path d="M200 46H220.125V48.875H200V46Z" fill="white"/>
<path d="M228.75 42.3036V63.25C228.75 68.0135 224.245 71.875 218.688 71.875C213.13 71.875 208.625 68.0135 208.625 63.25C208.625 58.4865 213.13 54.625 218.688 54.625C221.503 54.625 224.049 55.6162 225.875 57.2138V28.75L246 33.0625V46L228.75 42.3036Z" fill="white"/>
<path d="M177.537 48.9627L154.777 48.8035C154.39 48.8024 154.009 48.9032 153.672 49.0955C153.335 49.2878 153.055 49.5651 152.859 49.8997L150.256 54.3088C150.04 54.6761 149.722 54.9733 149.341 55.1645C148.96 55.3556 148.532 55.4327 148.108 55.3866C147.684 55.3404 147.283 55.1729 146.952 54.9042C146.621 54.6355 146.375 54.2772 146.243 53.8719L141.843 40.3976C141.695 39.9427 141.403 39.5485 141.011 39.2734C140.62 38.9983 140.15 38.8571 139.671 38.8716C139.193 38.8861 138.732 39.0553 138.358 39.3536C137.984 39.652 137.717 40.0634 137.596 40.5264L132.602 59.6552C132.478 60.1291 132.2 60.5484 131.813 60.8477C131.425 61.1471 130.949 61.3094 130.459 61.3094C129.97 61.3094 129.494 61.1471 129.106 60.8477C128.719 60.5484 128.441 60.1291 128.317 59.6552L125.839 50.2382C125.714 49.7687 125.438 49.3532 125.054 49.056C124.669 48.7589 124.198 48.5967 123.712 48.5941L96.4766 48.4034" stroke="white" stroke-width="2.74028" stroke-miterlimit="10" stroke-linecap="round"/>
<defs>
<radialGradient id="paint0_radial_5634_140813" cx="0" cy="0" r="1" gradientUnits="userSpaceOnUse" gradientTransform="translate(52.9077 54.5552) scale(45.353)">
<stop stop-color="#F58C00"/>
<stop offset="1" stop-color="#E64B34"/>
</radialGradient>
<radialGradient id="paint1_radial_5634_140813" cx="0" cy="0" r="1" gradientUnits="userSpaceOnUse" gradientTransform="translate(228.443 52.8169) scale(45.353)">
<stop stop-color="#F58C00"/>
<stop offset="1" stop-color="#E64B34"/>
</radialGradient>
</defs>
</svg>
