<svg width="274" height="100" viewBox="0 0 274 100" fill="none" xmlns="http://www.w3.org/2000/svg">
<path d="M52.9077 99.9082C77.9555 99.9082 98.2608 79.603 98.2608 54.5552C98.2608 29.5074 77.9555 9.20215 52.9077 9.20215C27.8599 9.20215 7.55469 29.5074 7.55469 54.5552C7.55469 79.603 27.8599 99.9082 52.9077 99.9082Z" fill="url(#paint0_radial_5634_140858)"/>
<path d="M25.1842 9.75468C32.1066 5.80247 39.9423 3.72956 47.9134 3.74225C53.9429 3.74207 59.9134 4.92954 65.484 7.23684C71.0545 9.54414 76.1161 12.9263 80.3796 17.1898C84.643 21.4533 88.025 26.5148 90.3323 32.0854C92.6396 37.6559 93.8271 43.6262 93.8269 49.6557C93.8271 55.6852 92.6396 61.6558 90.3323 67.2263C88.025 72.7969 84.643 77.8585 80.3796 82.1219C76.1161 86.3854 71.0545 89.7672 65.484 92.0745C59.9134 94.3818 53.9429 95.5693 47.9134 95.5691C35.7365 95.5691 24.0582 90.732 15.4478 82.1216C6.83734 73.5112 2.00005 61.8327 2.00005 49.6557C1.989 42.1794 3.81152 34.8144 7.30797 28.2061" stroke="white" stroke-width="2.74028" stroke-miterlimit="10" stroke-linecap="round"/>
<path fill-rule="evenodd" clip-rule="evenodd" d="M58.7062 43.0686C58.1362 44.0054 58.606 45.185 59.611 45.6239C60.6159 46.0628 61.7723 45.5897 62.3883 44.6825C63.2721 43.3809 64.4357 42.2822 65.8032 41.4721C67.7435 40.3227 69.9962 39.8127 72.2424 40.0141C74.4885 40.2156 76.6145 41.1183 78.3193 42.5946C80.0242 44.0709 81.2216 46.0459 81.7421 48.2402C82.2626 50.4345 82.0798 52.737 81.2196 54.8217C80.3594 56.9064 78.8654 58.6678 76.949 59.8566C75.0326 61.0454 72.7909 61.6014 70.541 61.4459C68.9554 61.3364 67.4223 60.8773 66.048 60.1113C65.0902 59.5774 63.8445 59.6741 63.1437 60.5176C62.443 61.361 62.553 62.626 63.483 63.207C65.5213 64.4802 67.8497 65.2406 70.2673 65.4076C73.3482 65.6205 76.418 64.8591 79.0424 63.2311C81.6667 61.6032 83.7126 59.1911 84.8905 56.3363C86.0685 53.4815 86.3187 50.3286 85.606 47.3237C84.8932 44.3188 83.2535 41.6142 80.9189 39.5925C78.5843 37.5709 75.673 36.3347 72.5971 36.0589C69.5212 35.783 66.4364 36.4815 63.7793 38.0554C61.6943 39.2905 59.9555 41.0156 58.7062 43.0686ZM42.6956 46.9041C43.6174 47.4981 43.7096 48.7645 42.997 49.5981C42.2844 50.4316 41.0375 50.5107 40.0873 49.9634C38.7239 49.178 37.1975 48.6974 35.6135 48.5655C33.3661 48.3783 31.1168 48.9027 29.1838 50.0643C27.2508 51.226 25.7321 52.9662 24.8426 55.0385C23.9531 57.1109 23.7379 59.4105 24.2274 61.612C24.7169 63.8134 25.8864 65.8051 27.5702 67.3053C29.2541 68.8055 31.3671 69.7381 33.6102 69.9712C35.8533 70.2043 38.1129 69.726 40.0693 68.6041C41.4481 67.8134 42.627 66.7312 43.5291 65.4422C44.1578 64.5437 45.3208 64.087 46.3194 64.54C47.3181 64.993 47.7713 66.1792 47.1881 67.1078C45.91 69.143 44.147 70.8434 42.0448 72.049C39.3658 73.5853 36.2715 74.2402 33.1998 73.921C30.1281 73.6019 27.2345 72.3247 24.9286 70.2704C22.6227 68.216 21.0213 65.4886 20.351 62.4739C19.6806 59.4593 19.9754 56.3102 21.1934 53.4723C22.4115 50.6344 24.4912 48.2514 27.1382 46.6606C29.7852 45.0698 32.8655 44.3517 35.9431 44.6081C38.3581 44.8092 40.6755 45.6023 42.6956 46.9041Z" fill="white"/>
<path fill-rule="evenodd" clip-rule="evenodd" d="M54.2639 49.5828C54.2487 49.5953 54.2302 49.6119 54.2084 49.6337C54.2117 49.6305 54.2116 49.6307 54.2088 49.6356C54.1973 49.6558 54.1406 49.7553 54.0894 50.0175C54.0313 50.3148 54 50.7127 53.9922 51.2039C53.9798 51.9767 54.0252 52.881 54.0733 53.841C54.0867 54.1074 54.1003 54.378 54.1129 54.6513C54.1695 55.8766 54.2067 57.1579 54.0846 58.1964C54.0236 58.715 53.9175 59.2274 53.7231 59.6616C53.5277 60.0981 53.203 60.5403 52.6642 60.7558C51.5866 61.1869 50.7125 60.5317 50.1681 59.9222C49.6029 59.2894 49.0895 58.387 48.6316 57.5586C48.5725 57.4518 48.5142 57.3458 48.4565 57.2411C48.0438 56.4915 47.6643 55.802 47.2785 55.2689C47.061 54.9685 46.8715 54.7613 46.7105 54.635C46.5516 54.5105 46.4753 54.5069 46.4633 54.5069C46.4515 54.5069 46.4421 54.5073 46.435 54.5079C46.4087 54.5394 46.3569 54.6177 46.2644 54.8135C46.2374 54.8708 46.2084 54.9349 46.1769 55.0048C45.9786 55.4443 45.6774 56.112 45.0855 56.7577C43.6808 58.2901 40.846 59.5541 34.2656 59.5541V57.8717C40.7242 57.8717 42.9366 56.6121 43.8453 55.6208C44.2427 55.1873 44.4311 54.775 44.6303 54.3391C44.6671 54.2586 44.7042 54.1774 44.7431 54.0951C44.8562 53.8556 45.0206 53.5276 45.2928 53.2708C45.6077 52.9735 46.0037 52.8244 46.4633 52.8244C46.977 52.8244 47.41 53.0456 47.7485 53.311C48.0849 53.5746 48.3808 53.9224 48.6414 54.2825C49.0934 54.907 49.5289 55.6992 49.9332 56.4346C49.9908 56.5393 50.0477 56.6428 50.104 56.7446C50.5791 57.604 51.0054 58.334 51.4229 58.8014C51.8469 59.2761 52.0024 59.2096 52.0364 59.195C52.0375 59.1945 52.0385 59.1941 52.0394 59.1937C52.0401 59.1934 52.0423 59.1926 52.0466 59.1895C52.0512 59.1862 52.0604 59.1788 52.0735 59.1643C52.1009 59.134 52.1419 59.0761 52.1875 58.9742C52.2821 58.7629 52.3617 58.4421 52.4137 58C52.5175 57.1169 52.4894 55.9662 52.4322 54.7289C52.4206 54.4757 52.4076 54.2186 52.3947 53.9607C52.3459 52.9921 52.2966 52.0113 52.31 51.177C52.3184 50.6464 52.3522 50.1347 52.4382 49.6948C52.5185 49.2836 52.6696 48.7933 53.0188 48.444C53.3199 48.143 53.7018 47.9062 54.1647 47.8766C54.6281 47.847 55.0119 48.0354 55.2949 48.2532C55.8157 48.654 56.2405 49.3499 56.5836 49.9526C56.7118 50.1779 56.8337 50.3998 56.9531 50.6174C57.1906 51.0499 57.4186 51.4652 57.6687 51.8555C58.0519 52.4534 58.3672 52.7886 58.6165 52.9132C58.6647 52.9373 58.8159 52.9837 59.1323 52.9923C59.4327 53.0005 59.8137 52.9734 60.2686 52.911C61.178 52.7864 62.2964 52.5336 63.4959 52.2207C64.6914 51.9088 65.9416 51.5442 67.1133 51.2019L67.1826 51.1817C68.3202 50.8493 69.3901 50.5367 70.234 50.3258L70.642 51.958C69.8306 52.1608 68.7872 52.4657 67.6283 52.8042L67.585 52.8169C66.417 53.1581 65.1436 53.5296 63.9206 53.8486C62.7016 54.1666 61.5066 54.4396 60.497 54.5779C59.9924 54.647 59.5125 54.6857 59.0867 54.6741C58.6769 54.663 58.2366 54.6043 57.8642 54.4181C57.173 54.0725 56.6499 53.3839 56.2522 52.7633C55.9715 52.3254 55.6944 51.8211 55.4416 51.361C55.3295 51.1571 55.2222 50.9619 55.1214 50.7849C54.7533 50.1382 54.4793 49.7485 54.2687 49.5865C54.2671 49.5852 54.2655 49.584 54.2639 49.5828ZM54.2108 49.549C54.2108 49.5489 54.2115 49.5492 54.213 49.5498C54.2115 49.5493 54.2108 49.549 54.2108 49.549ZM54.3166 49.5466C54.3166 49.5467 54.3154 49.5473 54.3132 49.5481C54.3155 49.547 54.3166 49.5465 54.3166 49.5466ZM46.4165 54.5104C46.4165 54.5104 46.4168 54.5103 46.4174 54.5102L46.4165 54.5104Z" fill="white"/>
<path fill-rule="evenodd" clip-rule="evenodd" d="M70.4399 55.3481C72.9951 55.3481 75.0666 53.2767 75.0666 50.7214C75.0666 48.1662 72.9951 46.0947 70.4399 46.0947C67.8846 46.0947 65.8132 48.1662 65.8132 50.7214C65.8132 53.2767 67.8846 55.3481 70.4399 55.3481ZM34.2673 63.7604C36.8226 63.7604 38.894 61.689 38.894 59.1337C38.894 56.5785 36.8226 54.507 34.2673 54.507C31.7121 54.507 29.6406 56.5785 29.6406 59.1337C29.6406 61.689 31.7121 63.7604 34.2673 63.7604Z" fill="white"/>
<path d="M228.443 98.17C253.491 98.17 273.796 77.8647 273.796 52.8169C273.796 27.7691 253.491 7.46387 228.443 7.46387C203.395 7.46387 183.09 27.7691 183.09 52.8169C183.09 77.8647 203.395 98.17 228.443 98.17Z" fill="url(#paint1_radial_5634_140858)"/>
<path d="M200.719 8.01248C207.642 4.06076 215.478 1.98787 223.449 2.00005C235.626 2.00005 247.304 6.83747 255.914 15.4479C264.525 24.0583 269.362 35.7365 269.362 47.9135C269.362 53.943 268.175 59.9136 265.867 65.4842C263.56 71.0547 260.178 76.1163 255.915 80.3798C251.651 84.6432 246.59 88.025 241.019 90.3323C235.449 92.6396 229.478 93.8271 223.449 93.8269C211.272 93.8269 199.593 88.9899 190.983 80.3794C182.373 71.769 177.535 60.0905 177.535 47.9135C177.524 40.4372 179.347 33.0723 182.843 26.4639" stroke="white" stroke-width="2.74028" stroke-miterlimit="10" stroke-linecap="round"/>
<path d="M217.25 26.999L237.375 31.3115V44.2489L220.125 40.5525V61.4988C220.125 66.2623 215.62 70.1238 210.062 70.1238C204.505 70.1238 200 66.2623 200 61.4988C200 56.7354 204.505 52.8739 210.062 52.8739C212.878 52.8739 215.424 53.8651 217.25 55.4626V26.999ZM230.718 72.9606L246 58.3401L243.923 56.3526L230.674 69.028L225.388 63.9713L223.311 65.9588L230.671 73.0008L230.716 72.9584L230.718 72.9606Z" fill="white"/>
<path d="M177.537 48.9627L154.777 48.8035C154.39 48.8024 154.009 48.9032 153.672 49.0955C153.335 49.2878 153.055 49.5651 152.859 49.8997L150.256 54.3088C150.04 54.6761 149.722 54.9733 149.341 55.1645C148.96 55.3556 148.532 55.4327 148.108 55.3866C147.684 55.3404 147.283 55.1729 146.952 54.9042C146.621 54.6355 146.375 54.2772 146.243 53.8719L141.843 40.3976C141.695 39.9427 141.403 39.5485 141.011 39.2734C140.62 38.9983 140.15 38.8571 139.671 38.8716C139.193 38.8861 138.732 39.0553 138.358 39.3536C137.984 39.652 137.717 40.0634 137.596 40.5264L132.602 59.6552C132.478 60.1291 132.2 60.5484 131.813 60.8477C131.425 61.1471 130.949 61.3094 130.459 61.3094C129.97 61.3094 129.494 61.1471 129.106 60.8477C128.719 60.5484 128.441 60.1291 128.317 59.6552L125.839 50.2382C125.714 49.7687 125.438 49.3532 125.054 49.056C124.669 48.7589 124.198 48.5967 123.712 48.5941L96.4766 48.4034" stroke="white" stroke-width="2.74028" stroke-miterlimit="10" stroke-linecap="round"/>
<defs>
<radialGradient id="paint0_radial_5634_140858" cx="0" cy="0" r="1" gradientUnits="userSpaceOnUse" gradientTransform="translate(52.9077 54.5552) scale(45.353)">
<stop stop-color="#F58C00"/>
<stop offset="1" stop-color="#E64B34"/>
</radialGradient>
<radialGradient id="paint1_radial_5634_140858" cx="0" cy="0" r="1" gradientUnits="userSpaceOnUse" gradientTransform="translate(228.443 52.8169) scale(45.353)">
<stop stop-color="#F58C00"/>
<stop offset="1" stop-color="#E64B34"/>
</radialGradient>
</defs>
</svg>
